<svg version="1.1" id="logo-b" xmlns="http://www.w3.org/2000/svg" xmlns:xlink="http://www.w3.org/1999/xlink" x="0px" y="0px"
	 viewBox="0 0 119.3 26.5" enable-background="new 0 0 119.3 26.5" xml:space="preserve">
<path fill="#DCDDDD" d="M22.2,20.4L14,15.8c-0.5-0.3-1.3-0.3-1.8,0l-8.2,4.6c-0.5,0.3-0.5,0.7,0,1l8.2,4.6c0.5,0.3,1.3,0.3,1.8,0
	l8.2-4.6C22.7,21.2,22.7,20.7,22.2,20.4"/>
<path fill="#1BB91F" d="M23.3,8l-9.4,5.3c-0.6,0.3-1.1,1.1-1.1,1.8l-0.2,10.6c0,0.7,0.4,0.9,1,0.6l9.4-5.3c0.6-0.3,1.1-1.1,1.1-1.8
	l0.2-10.6C24.3,8,23.9,7.7,23.3,8"/>
<path fill="#1BB91F" d="M21.4,5.1l-7.9-4.4C13,0.4,12.4,0.3,12,0.5c-0.3,0-0.7,0.2-1,0.4L1.6,6.5C1.5,6.6,1.4,6.7,1.3,6.8
	C1.1,6.9,1,7,0.9,7.2C0.8,7.2,0.7,7.4,0.6,7.5C0.5,7.7,0.4,8,0.5,8.3c0,0,0,0,0,0l0,9.7c0,1,0.7,1.8,1.6,1.8s1.6-0.8,1.6-1.8l0-7.1
	l6.1,3.4c0.9,0.5,1.9,0.3,2.4-0.5c0.4-0.8,0.1-1.8-0.8-2.2L5.1,8.1l7.4-4.5l7.4,4.1c0.8,0.5,1.8,0.2,2.3-0.5
	C22.5,6.5,22.2,5.5,21.4,5.1"/>
<path fill="#1BB91F" d="M39.3,7.5c0.2,0,0.3,0.1,0.5,0.2c0.1,0.1,0.2,0.2,0.2,0.4c0,0.1-0.1,0.3-0.2,0.4c-0.1,0.1-0.3,0.2-0.5,0.2
	h-6.5c-0.3,0-0.5,0.1-0.7,0.3C32,9,31.9,9.2,31.9,9.4v4.4h6.6c0.2,0,0.3,0.1,0.5,0.2c0.1,0.1,0.2,0.2,0.2,0.4c0,0.1-0.1,0.3-0.2,0.4
	c-0.1,0.1-0.3,0.2-0.5,0.2h-6.6v6.4c0,0.2-0.1,0.3-0.2,0.5c-0.1,0.1-0.3,0.2-0.4,0.2c-0.2,0-0.3-0.1-0.4-0.2
	c-0.1-0.1-0.2-0.3-0.2-0.5V9.4c0-0.5,0.1-0.9,0.4-1.3c0.3-0.4,0.8-0.6,1.4-0.6H39.3z"/>
<path fill="#1BB91F" d="M44.1,7.5c0.2,0.2,0.3,0.4,0.3,0.7c0,0.3-0.1,0.5-0.3,0.7c-0.2,0.2-0.4,0.3-0.7,0.3c-0.3,0-0.5-0.1-0.7-0.3
	c-0.2-0.2-0.2-0.4-0.2-0.7c0-0.3,0.1-0.5,0.2-0.7c0.2-0.2,0.4-0.3,0.7-0.3C43.7,7.2,43.9,7.3,44.1,7.5 M43,11.1
	c0.1-0.1,0.3-0.2,0.4-0.2c0.2,0,0.3,0,0.4,0.1c0.1,0.1,0.2,0.2,0.2,0.4v9.7c0,0.2-0.1,0.3-0.2,0.5c-0.1,0.1-0.3,0.2-0.4,0.2
	c-0.2,0-0.3-0.1-0.4-0.2c-0.1-0.1-0.2-0.3-0.2-0.5v-9.7C42.8,11.4,42.8,11.2,43,11.1"/>
<path fill="#1BB91F" d="M47.7,11.3c0.1-0.1,0.3-0.1,0.4-0.1c0.2,0,0.3,0,0.4,0.1c0.1,0.1,0.2,0.2,0.2,0.4v0.8c0.3-0.4,0.7-0.8,1-1
	c0.5-0.3,1-0.5,1.7-0.5c0.3,0,0.4,0.2,0.4,0.6c0,0.4-0.1,0.6-0.5,0.6c-0.6,0-1.2,0.2-1.7,0.5c-0.4,0.3-0.8,0.7-1,1.2v7.4
	c0,0.2-0.1,0.3-0.2,0.5c-0.1,0.1-0.3,0.2-0.4,0.2c-0.2,0-0.3-0.1-0.4-0.2c-0.1-0.1-0.2-0.3-0.2-0.5v-9.6
	C47.6,11.5,47.6,11.4,47.7,11.3"/>
<path fill="#1BB91F" d="M60.2,11.8c0.6,0.5,0.9,1.1,0.9,1.9c0,0.2,0,0.3-0.2,0.5c-0.1,0.1-0.3,0.2-0.4,0.2c-0.2,0-0.3,0-0.4-0.1
	c-0.1-0.1-0.2-0.2-0.2-0.4c-0.1-0.6-0.3-1-0.7-1.3c-0.4-0.3-1.1-0.5-2-0.5c-0.7,0-1.2,0.1-1.6,0.4c-0.4,0.3-0.7,0.7-0.7,1.1
	c0,0.5,0.2,0.9,0.6,1.2c0.4,0.3,1.2,0.6,2.3,0.9c1.4,0.3,2.3,0.7,2.9,1.2c0.5,0.5,0.8,1.2,0.8,2c0,0.9-0.3,1.5-0.9,2.1
	c-0.7,0.6-1.7,0.9-2.9,0.9c-1.3,0-2.3-0.3-2.9-0.8c-0.7-0.5-1-1.3-1.1-2.3c0-0.2,0-0.3,0.2-0.4c0.1-0.1,0.2-0.2,0.4-0.2
	c0.2,0,0.3,0,0.4,0.1c0.1,0.1,0.2,0.2,0.2,0.4c0,0.7,0.2,1.2,0.6,1.5c0.5,0.4,1.2,0.6,2.2,0.6c0.8,0,1.5-0.2,2-0.6
	c0.5-0.3,0.7-0.8,0.7-1.3c0-0.5-0.2-0.9-0.6-1.2c-0.5-0.4-1.3-0.7-2.6-1c-1.1-0.3-2-0.7-2.5-1.1c-0.6-0.5-0.9-1.1-0.9-1.9
	c0-0.9,0.3-1.5,1-2c0.6-0.5,1.5-0.7,2.5-0.7C58.5,11,59.5,11.3,60.2,11.8"/>
<path fill="#1BB91F" d="M65.3,8.2c0.1-0.1,0.3-0.1,0.4-0.1c0.2,0,0.3,0,0.4,0.1c0.1,0.1,0.2,0.2,0.2,0.4v2.7h1.6
	c0.3,0,0.5,0.2,0.5,0.5c0,0.4-0.2,0.5-0.5,0.5h-1.6V20c0,0.2,0.1,0.4,0.2,0.6c0.2,0.2,0.4,0.3,0.7,0.3h0.7c0.2,0,0.3,0.1,0.4,0.2
	c0.1,0.1,0.2,0.2,0.2,0.4c0,0.1-0.1,0.3-0.2,0.4c-0.1,0.1-0.3,0.2-0.4,0.2H67c-0.6,0-1.1-0.2-1.4-0.6c-0.3-0.3-0.5-0.8-0.5-1.3v-7.7
	h-1c-0.3,0-0.4-0.2-0.4-0.5c0-0.3,0.1-0.5,0.4-0.5h1V8.7C65.1,8.5,65.2,8.3,65.3,8.2"/>
<path fill="#FFFFFF" d="M81.3,7.7c0.1,0.1,0.2,0.2,0.2,0.4c0,0.1-0.1,0.3-0.2,0.4c-0.1,0.1-0.3,0.2-0.5,0.2h-3.9v12.7
	c0,0.2-0.1,0.3-0.2,0.4c-0.1,0.1-0.3,0.2-0.4,0.2c-0.2,0-0.3-0.1-0.4-0.2c-0.1-0.1-0.2-0.3-0.2-0.4V8.6h-4.1c-0.3,0-0.5-0.2-0.5-0.5
	c0-0.4,0.2-0.5,0.5-0.5h9.2C81,7.5,81.2,7.6,81.3,7.7"/>
<path fill="#FFFFFF" d="M88.5,12.7c0.8,1,1.2,2.2,1.2,3.8c0,1.5-0.4,2.7-1.2,3.7c-0.9,1.1-2.1,1.7-3.6,1.7c-1.5,0-2.7-0.6-3.6-1.7
	c-0.8-1-1.1-2.2-1.1-3.7c0-1.5,0.4-2.8,1.1-3.8c0.9-1.1,2.1-1.7,3.6-1.7C86.4,11.1,87.6,11.6,88.5,12.7 M82.2,13.5
	c-0.6,0.8-0.8,1.8-0.8,3c0,1.2,0.3,2.2,0.8,3c0.6,0.9,1.5,1.4,2.7,1.4c1.1,0,2-0.5,2.7-1.4c0.6-0.8,0.9-1.8,0.9-3
	c0-1.2-0.3-2.2-0.9-3c-0.6-0.9-1.5-1.4-2.7-1.4C83.7,12.1,82.9,12.6,82.2,13.5"/>
<path fill="#FFFFFF" d="M99,21.6c-0.1,0.1-0.3,0.2-0.4,0.2c-0.2,0-0.3-0.1-0.4-0.2c-0.1-0.1-0.2-0.3-0.2-0.4v-0.8
	c-0.4,0.5-0.9,0.8-1.4,1.1c-0.6,0.3-1.3,0.5-2,0.5c-1,0-1.8-0.3-2.4-1c-0.5-0.6-0.8-1.3-0.8-2.1v-7.3c0-0.2,0.1-0.4,0.2-0.5
	c0.1-0.1,0.3-0.2,0.4-0.2c0.2,0,0.3,0.1,0.4,0.2c0.1,0.1,0.2,0.3,0.2,0.5v7.3c0,0.5,0.2,1,0.5,1.3c0.4,0.4,0.9,0.6,1.5,0.6
	c0.7,0,1.3-0.2,1.9-0.6c0.6-0.3,1.1-0.8,1.6-1.5v-7.2c0-0.2,0.1-0.4,0.2-0.5c0.1-0.1,0.3-0.2,0.4-0.2c0.2,0,0.3,0.1,0.4,0.2
	c0.1,0.1,0.2,0.3,0.2,0.5v9.5C99.1,21.3,99.1,21.5,99,21.6"/>
<path fill="#FFFFFF" d="M105.1,11c1.1,0,2.1,0.3,2.8,0.8c0.6,0.5,1.1,1,1.3,1.7c0,0.2,0,0.3-0.1,0.4c-0.1,0.1-0.2,0.2-0.4,0.2
	c-0.2,0-0.3,0-0.5,0c-0.2-0.1-0.3-0.2-0.3-0.4c-0.2-0.6-0.5-1-1-1.3c-0.5-0.3-1.1-0.4-1.9-0.4c-1.1,0-1.9,0.5-2.5,1.4
	c-0.5,0.8-0.8,1.8-0.8,3c0,1.3,0.3,2.3,0.8,3.1c0.6,0.9,1.4,1.3,2.5,1.3c0.9,0,1.6-0.1,2.1-0.4c0.5-0.3,0.8-0.8,1.1-1.4
	c0.1-0.2,0.2-0.3,0.3-0.4c0.2-0.1,0.3-0.1,0.5,0c0.2,0,0.3,0.1,0.4,0.2c0.1,0.1,0.1,0.3,0,0.5c-0.4,0.8-0.9,1.4-1.4,1.8
	c-0.7,0.5-1.7,0.8-2.9,0.8c-1.6,0-2.8-0.5-3.6-1.6c-0.7-1-1.1-2.2-1.1-3.8c0-1.5,0.4-2.8,1.1-3.8C102.4,11.6,103.5,11,105.1,11"/>
<path fill="#FFFFFF" d="M111.7,7.3c0.1-0.1,0.3-0.2,0.4-0.2c0.2,0,0.3,0.1,0.4,0.2c0.1,0.1,0.2,0.3,0.2,0.5v4.8
	c0.4-0.5,0.9-0.9,1.4-1.1c0.6-0.3,1.3-0.5,2-0.5c1,0,1.9,0.3,2.5,0.9c0.6,0.6,0.9,1.3,0.9,2.1v7.2c0,0.2-0.1,0.3-0.2,0.5
	c-0.1,0.1-0.3,0.2-0.4,0.2c-0.2,0-0.3-0.1-0.4-0.2c-0.1-0.1-0.2-0.3-0.2-0.5V14c0-0.5-0.2-1-0.5-1.4c-0.4-0.4-0.9-0.6-1.6-0.6
	c-0.7,0-1.3,0.2-1.9,0.5c-0.5,0.3-1,0.8-1.5,1.5v7.2c0,0.2-0.1,0.4-0.2,0.5c-0.1,0.1-0.3,0.2-0.4,0.2c-0.2,0-0.3-0.1-0.4-0.2
	c-0.1-0.1-0.2-0.3-0.2-0.5V7.8C111.5,7.6,111.6,7.5,111.7,7.3"/>
</svg>
