<?xml version="1.0" standalone="no"?>
<!DOCTYPE svg PUBLIC "-//W3C//DTD SVG 20010904//EN"
 "http://www.w3.org/TR/2001/REC-SVG-20010904/DTD/svg10.dtd">
<svg version="1.0" xmlns="http://www.w3.org/2000/svg"
 width="260.000000pt" height="260.000000pt" viewBox="0 0 260.000000 260.000000"
 preserveAspectRatio="xMidYMid meet">
<metadata>
Created by potrace 1.11, written by Peter Selinger 2001-2013
</metadata>
<g transform="translate(0.000000,260.000000) scale(0.100000,-0.100000)"
fill="#000000" stroke="none">
<path d="M990 1859 c-151 -94 -287 -183 -302 -197 l-28 -26 0 -324 0 -324 29
-29 c36 -36 70 -37 108 -5 l28 24 3 227 c3 192 5 226 17 221 8 -3 86 -47 172
-97 174 -101 213 -113 256 -79 22 17 27 30 27 64 0 56 -7 62 -215 181 -93 54
-171 99 -173 100 -2 1 88 60 198 130 l201 127 211 -121 c231 -133 258 -142
303 -96 28 27 30 46 12 89 -10 23 -61 57 -252 167 -201 117 -246 139 -280 139
-34 0 -79 -24 -315 -171z"/>
<path d="M1655 1459 c-143 -83 -273 -164 -289 -179 -20 -20 -31 -43 -37 -79
-6 -39 -13 -509 -10 -623 1 -12 9 -18 25 -18 34 0 554 308 580 343 20 27 21
40 21 365 0 292 -2 337 -15 340 -8 1 -132 -66 -275 -149z"/>
</g>
</svg>
